<?xml version="1.0" encoding="UTF-8" standalone="no"?>
<!-- Created with Inkscape (http://www.inkscape.org/) -->

<svg
   width="1024"
   height="1024"
   viewBox="0 0 1024 1024"
   version="1.1"
   id="svg1"
   xml:space="preserve"
   xmlns="http://www.w3.org/2000/svg"
   xmlns:svg="http://www.w3.org/2000/svg"><defs
     id="defs1"><filter
       style="color-interpolation-filters:sRGB"
       id="filter17"
       x="-0.56562211"
       y="-0.56562282"
       width="2.1312442"
       height="2.1312456"><feFlood
         result="flood"
         in="SourceGraphic"
         flood-opacity="0.400000"
         flood-color="rgb(255,255,255)"
         id="feFlood16" /><feGaussianBlur
         result="blur"
         in="SourceGraphic"
         stdDeviation="100.000000"
         id="feGaussianBlur16" /><feOffset
         result="offset"
         in="blur"
         dx="0.000000"
         dy="0.000000"
         id="feOffset16" /><feComposite
         result="comp1"
         operator="in"
         in="flood"
         in2="offset"
         id="feComposite16" /><feComposite
         result="comp2"
         operator="over"
         in="SourceGraphic"
         in2="comp1"
         id="feComposite17" /></filter><filter
       style="color-interpolation-filters:sRGB"
       id="filter26"
       x="-1.2499338"
       y="-1.7858715"
       width="3.4998675"
       height="4.571743"><feFlood
         result="flood"
         in="SourceGraphic"
         flood-opacity="0.800000"
         flood-color="rgb(255,255,255)"
         id="feFlood25" /><feGaussianBlur
         result="blur"
         in="SourceGraphic"
         stdDeviation="10.000000"
         id="feGaussianBlur25" /><feOffset
         result="offset"
         in="blur"
         dx="0.000000"
         dy="0.000000"
         id="feOffset25" /><feComposite
         result="comp1"
         operator="in"
         in="flood"
         in2="offset"
         id="feComposite25" /><feComposite
         result="comp2"
         operator="over"
         in="SourceGraphic"
         in2="comp1"
         id="feComposite26" /></filter></defs><g
     id="layer1"><rect
       style="fill:#111111;fill-opacity:1;stroke-width:0;stroke-dasharray:none"
       id="rect1"
       width="1024"
       height="1024"
       x="0"
       y="0"
       rx="100"
       ry="100" /><path
       fill="none"
       stroke="currentColor"
       stroke-linecap="round"
       stroke-linejoin="round"
       stroke-width="46.5444"
       d="m 463.94803,593.45257 a 46.544343,46.544343 0 0 0 -33.44212,-33.44212 l -142.7748,-36.81652 a 11.636086,11.636086 0 0 1 0,-22.38787 l 142.7748,-36.83982 a 46.544343,46.544343 0 0 0 33.44212,-33.41882 l 36.81652,-142.7748 a 11.636086,11.636086 0 0 1 22.4111,0 l 36.7933,142.7748 a 46.544343,46.544343 0 0 0 33.44212,33.44212 l 142.7748,36.79329 a 11.636086,11.636086 0 0 1 0,22.43433 l -142.7748,36.79329 a 46.544343,46.544343 0 0 0 -33.44212,33.44212 l -36.81652,142.7748 a 11.636086,11.636086 0 0 1 -22.41111,0 z M 698.13589,302.55046 v 93.08868 M 744.68023,349.0948 H 651.59154 M 325.78109,628.36085 v 46.54434 m 23.27221,-23.27214 h -46.54435"
       id="path1"
       style="stroke:#ffffff;stroke-width:46.544;stroke-dasharray:none;stroke-opacity:1;filter:url(#filter17)" /><g
       fill="none"
       stroke="currentColor"
       stroke-linecap="round"
       stroke-linejoin="round"
       stroke-width="2"
       id="g1"
       transform="matrix(8.8632783,0,0,8.8632783,405.64066,405.64066)"
       style="stroke:#ffffff;stroke-opacity:1;filter:url(#filter26)"><path
         d="m 2.062,12.348 a 1,1 0 0 1 0,-0.696 10.75,10.75 0 0 1 19.876,0 1,1 0 0 1 0,0.696 10.75,10.75 0 0 1 -19.876,0"
         id="path1-4"
         style="stroke:#ffffff;stroke-opacity:1" /><circle
         cx="12"
         cy="12"
         r="3"
         id="circle1"
         style="stroke:#ffffff;stroke-opacity:1" /></g></g></svg>
